<?xml version="1.0" encoding="UTF-8" standalone="no"?>
<!DOCTYPE svg PUBLIC "-//W3C//DTD SVG 1.1//EN"
 "http://www.w3.org/Graphics/SVG/1.1/DTD/svg11.dtd">
<!-- Generated by graphviz version 2.30.1 (20180420.1509)
 -->
<!-- Title: dag Pages: 1 -->
<svg width="430pt" height="476pt"
 viewBox="0.00 0.00 430.00 476.00" xmlns="http://www.w3.org/2000/svg" xmlns:xlink="http://www.w3.org/1999/xlink">
<g id="graph0" class="graph" transform="scale(1 1) rotate(0) translate(4 472)">
<title>dag</title>
<polygon fill="white" stroke="white" points="-4,5 -4,-472 427,-472 427,5 -4,5"/>
<!-- initial_input_file_2 -->
<g id="node1" class="node"><title>initial_input_file_2</title>
<polygon fill="#ffed6f" stroke="#000000" points="202,-468 82,-468 82,-432 202,-432 202,-468"/>
<text text-anchor="middle" x="142" y="-446.3" font-family="Times,serif" font-size="14.00">initial_input_file_2</text>
</g>
<!-- ID0000001 -->
<g id="node6" class="node"><title>ID0000001</title>
<ellipse fill="#7570b3" stroke="#000000" cx="211" cy="-378" rx="57.2688" ry="18"/>
<text text-anchor="middle" x="211" y="-374.3" font-family="Times,serif" font-size="14.00">initialProcess</text>
</g>
<!-- initial_input_file_2&#45;&gt;ID0000001 -->
<g id="edge1" class="edge"><title>initial_input_file_2&#45;&gt;ID0000001</title>
<path fill="none" stroke="#000000" d="M159.056,-431.697C167.621,-423.007 178.133,-412.343 187.455,-402.887"/>
<polygon fill="#000000" stroke="#000000" points="190.088,-405.201 194.615,-395.622 185.102,-400.287 190.088,-405.201"/>
</g>
<!-- initial_input_file_1 -->
<g id="node2" class="node"><title>initial_input_file_1</title>
<polygon fill="#ffed6f" stroke="#000000" points="340,-468 220,-468 220,-432 340,-432 340,-468"/>
<text text-anchor="middle" x="280" y="-446.3" font-family="Times,serif" font-size="14.00">initial_input_file_1</text>
</g>
<!-- initial_input_file_1&#45;&gt;ID0000001 -->
<g id="edge2" class="edge"><title>initial_input_file_1&#45;&gt;ID0000001</title>
<path fill="none" stroke="#000000" d="M262.944,-431.697C254.379,-423.007 243.867,-412.343 234.545,-402.887"/>
<polygon fill="#000000" stroke="#000000" points="236.898,-400.287 227.385,-395.622 231.912,-405.201 236.898,-400.287"/>
</g>
<!-- ID0000004 -->
<g id="node3" class="node"><title>ID0000004</title>
<ellipse fill="#1b9e77" stroke="#000000" cx="211" cy="-234" rx="28.3955" ry="18"/>
<text text-anchor="middle" x="211" y="-230.3" font-family="Times,serif" font-size="14.00">child</text>
</g>
<!-- child_3_output_file -->
<g id="node13" class="node"><title>child_3_output_file</title>
<polygon fill="#ffed6f" stroke="#000000" points="272,-180 150,-180 150,-144 272,-144 272,-180"/>
<text text-anchor="middle" x="211" y="-158.3" font-family="Times,serif" font-size="14.00">child_3_output_file</text>
</g>
<!-- ID0000004&#45;&gt;child_3_output_file -->
<g id="edge3" class="edge"><title>ID0000004&#45;&gt;child_3_output_file</title>
<path fill="none" stroke="#000000" d="M211,-215.697C211,-207.983 211,-198.712 211,-190.112"/>
<polygon fill="#000000" stroke="#000000" points="214.5,-190.104 211,-180.104 207.5,-190.104 214.5,-190.104"/>
</g>
<!-- ID0000005 -->
<g id="node4" class="node"><title>ID0000005</title>
<ellipse fill="#d95f02" stroke="#000000" cx="211" cy="-90" rx="52.9443" ry="18"/>
<text text-anchor="middle" x="211" y="-86.3" font-family="Times,serif" font-size="14.00">finalProcess</text>
</g>
<!-- final_output_file -->
<g id="node9" class="node"><title>final_output_file</title>
<polygon fill="#ffed6f" stroke="#000000" points="264,-36 158,-36 158,-0 264,-0 264,-36"/>
<text text-anchor="middle" x="211" y="-14.3" font-family="Times,serif" font-size="14.00">final_output_file</text>
</g>
<!-- ID0000005&#45;&gt;final_output_file -->
<g id="edge4" class="edge"><title>ID0000005&#45;&gt;final_output_file</title>
<path fill="none" stroke="#000000" d="M211,-71.6966C211,-63.9827 211,-54.7125 211,-46.1124"/>
<polygon fill="#000000" stroke="#000000" points="214.5,-46.1043 211,-36.1043 207.5,-46.1044 214.5,-46.1043"/>
</g>
<!-- child_2_output_file -->
<g id="node5" class="node"><title>child_2_output_file</title>
<polygon fill="#ffed6f" stroke="#000000" points="414,-180 292,-180 292,-144 414,-144 414,-180"/>
<text text-anchor="middle" x="353" y="-158.3" font-family="Times,serif" font-size="14.00">child_2_output_file</text>
</g>
<!-- child_2_output_file&#45;&gt;ID0000005 -->
<g id="edge5" class="edge"><title>child_2_output_file&#45;&gt;ID0000005</title>
<path fill="none" stroke="#000000" d="M318.263,-143.876C297.378,-133.581 270.771,-120.465 249.282,-109.871"/>
<polygon fill="#000000" stroke="#000000" points="250.63,-106.634 240.113,-105.352 247.535,-112.913 250.63,-106.634"/>
</g>
<!-- parent_output_file_1 -->
<g id="node10" class="node"><title>parent_output_file_1</title>
<polygon fill="#ffed6f" stroke="#000000" points="128.25,-324 -0.25,-324 -0.25,-288 128.25,-288 128.25,-324"/>
<text text-anchor="middle" x="64" y="-302.3" font-family="Times,serif" font-size="14.00">parent_output_file_1</text>
</g>
<!-- ID0000001&#45;&gt;parent_output_file_1 -->
<g id="edge6" class="edge"><title>ID0000001&#45;&gt;parent_output_file_1</title>
<path fill="none" stroke="#000000" d="M180.898,-362.666C160.134,-352.778 132.173,-339.463 108.803,-328.335"/>
<polygon fill="#000000" stroke="#000000" points="110.3,-325.171 99.7664,-324.032 107.29,-331.491 110.3,-325.171"/>
</g>
<!-- parent_output_file_3 -->
<g id="node12" class="node"><title>parent_output_file_3</title>
<polygon fill="#ffed6f" stroke="#000000" points="275.25,-324 146.75,-324 146.75,-288 275.25,-288 275.25,-324"/>
<text text-anchor="middle" x="211" y="-302.3" font-family="Times,serif" font-size="14.00">parent_output_file_3</text>
</g>
<!-- ID0000001&#45;&gt;parent_output_file_3 -->
<g id="edge7" class="edge"><title>ID0000001&#45;&gt;parent_output_file_3</title>
<path fill="none" stroke="#000000" d="M211,-359.697C211,-351.983 211,-342.712 211,-334.112"/>
<polygon fill="#000000" stroke="#000000" points="214.5,-334.104 211,-324.104 207.5,-334.104 214.5,-334.104"/>
</g>
<!-- parent_output_file_2 -->
<g id="node11" class="node"><title>parent_output_file_2</title>
<polygon fill="#ffed6f" stroke="#000000" points="422.25,-324 293.75,-324 293.75,-288 422.25,-288 422.25,-324"/>
<text text-anchor="middle" x="358" y="-302.3" font-family="Times,serif" font-size="14.00">parent_output_file_2</text>
</g>
<!-- ID0000001&#45;&gt;parent_output_file_2 -->
<g id="edge8" class="edge"><title>ID0000001&#45;&gt;parent_output_file_2</title>
<path fill="none" stroke="#000000" d="M241.102,-362.666C261.866,-352.778 289.827,-339.463 313.197,-328.335"/>
<polygon fill="#000000" stroke="#000000" points="314.71,-331.491 322.234,-324.032 311.7,-325.171 314.71,-331.491"/>
</g>
<!-- ID0000002 -->
<g id="node7" class="node"><title>ID0000002</title>
<ellipse fill="#1b9e77" stroke="#000000" cx="66" cy="-234" rx="28.3955" ry="18"/>
<text text-anchor="middle" x="66" y="-230.3" font-family="Times,serif" font-size="14.00">child</text>
</g>
<!-- child_1_output_file -->
<g id="node14" class="node"><title>child_1_output_file</title>
<polygon fill="#ffed6f" stroke="#000000" points="130,-180 8,-180 8,-144 130,-144 130,-180"/>
<text text-anchor="middle" x="69" y="-158.3" font-family="Times,serif" font-size="14.00">child_1_output_file</text>
</g>
<!-- ID0000002&#45;&gt;child_1_output_file -->
<g id="edge9" class="edge"><title>ID0000002&#45;&gt;child_1_output_file</title>
<path fill="none" stroke="#000000" d="M66.7416,-215.697C67.0722,-207.983 67.4695,-198.712 67.838,-190.112"/>
<polygon fill="#000000" stroke="#000000" points="71.3355,-190.245 68.267,-180.104 64.3419,-189.945 71.3355,-190.245"/>
</g>
<!-- ID0000003 -->
<g id="node8" class="node"><title>ID0000003</title>
<ellipse fill="#1b9e77" stroke="#000000" cx="356" cy="-234" rx="28.3955" ry="18"/>
<text text-anchor="middle" x="356" y="-230.3" font-family="Times,serif" font-size="14.00">child</text>
</g>
<!-- ID0000003&#45;&gt;child_2_output_file -->
<g id="edge10" class="edge"><title>ID0000003&#45;&gt;child_2_output_file</title>
<path fill="none" stroke="#000000" d="M355.258,-215.697C354.928,-207.983 354.531,-198.712 354.162,-190.112"/>
<polygon fill="#000000" stroke="#000000" points="357.658,-189.945 353.733,-180.104 350.665,-190.245 357.658,-189.945"/>
</g>
<!-- parent_output_file_1&#45;&gt;ID0000002 -->
<g id="edge11" class="edge"><title>parent_output_file_1&#45;&gt;ID0000002</title>
<path fill="none" stroke="#000000" d="M64.4944,-287.697C64.7148,-279.983 64.9796,-270.712 65.2254,-262.112"/>
<polygon fill="#000000" stroke="#000000" points="68.7242,-262.2 65.5113,-252.104 61.727,-262 68.7242,-262.2"/>
</g>
<!-- parent_output_file_2&#45;&gt;ID0000003 -->
<g id="edge12" class="edge"><title>parent_output_file_2&#45;&gt;ID0000003</title>
<path fill="none" stroke="#000000" d="M357.506,-287.697C357.285,-279.983 357.02,-270.712 356.775,-262.112"/>
<polygon fill="#000000" stroke="#000000" points="360.273,-262 356.489,-252.104 353.276,-262.2 360.273,-262"/>
</g>
<!-- parent_output_file_3&#45;&gt;ID0000004 -->
<g id="edge13" class="edge"><title>parent_output_file_3&#45;&gt;ID0000004</title>
<path fill="none" stroke="#000000" d="M211,-287.697C211,-279.983 211,-270.712 211,-262.112"/>
<polygon fill="#000000" stroke="#000000" points="214.5,-262.104 211,-252.104 207.5,-262.104 214.5,-262.104"/>
</g>
<!-- child_3_output_file&#45;&gt;ID0000005 -->
<g id="edge14" class="edge"><title>child_3_output_file&#45;&gt;ID0000005</title>
<path fill="none" stroke="#000000" d="M211,-143.697C211,-135.983 211,-126.712 211,-118.112"/>
<polygon fill="#000000" stroke="#000000" points="214.5,-118.104 211,-108.104 207.5,-118.104 214.5,-118.104"/>
</g>
<!-- child_1_output_file&#45;&gt;ID0000005 -->
<g id="edge15" class="edge"><title>child_1_output_file&#45;&gt;ID0000005</title>
<path fill="none" stroke="#000000" d="M103.737,-143.876C124.622,-133.581 151.229,-120.465 172.718,-109.871"/>
<polygon fill="#000000" stroke="#000000" points="174.465,-112.913 181.887,-105.352 171.37,-106.634 174.465,-112.913"/>
</g>
</g>
</svg>
