<?xml version="1.0" encoding="UTF-8" standalone="no"?>
<!DOCTYPE svg PUBLIC "-//W3C//DTD SVG 1.1//EN"
 "http://www.w3.org/Graphics/SVG/1.1/DTD/svg11.dtd">
<!-- Generated by graphviz version 2.40.1 (20161225.0304)
 -->
<!-- Title: workflow Pages: 1 -->
<svg width="223pt" height="278pt"
 viewBox="0.00 0.00 229.00 286.00" xmlns="http://www.w3.org/2000/svg" xmlns:xlink="http://www.w3.org/1999/xlink">
<g id="graph0" class="graph" transform="scale(.9722 .9722) rotate(0) translate(4 282)">
<title>workflow</title>
<g id="clust1" class="cluster">
<title>cluster_inputs</title>
<polygon fill="transparent" stroke="#000000" stroke-dasharray="5,2" points="8,-215 8,-270 213,-270 213,-215 8,-215"/>
<text text-anchor="middle" x="50.5" y="-258" font-family="Times,serif" font-size="10.00" fill="#000000">Workflow Inputs</text>
</g>
<g id="clust2" class="cluster">
<title>cluster_outputs</title>
<polygon fill="transparent" stroke="#000000" stroke-dasharray="5,2" points="64,-8 64,-63 156,-63 156,-8 64,-8"/>
<text text-anchor="middle" x="110" y="-15" font-family="Times,serif" font-size="10.00" fill="#000000">Workflow Outputs</text>
</g>
<!-- initial_input_file_1 -->
<g id="node1" class="node">
<title>initial_input_file_1</title>
<polygon fill="#94ddf4" stroke="#000000" points="15.5,-223.5 15.5,-242.5 108.5,-242.5 108.5,-223.5 15.5,-223.5"/>
<text text-anchor="middle" x="62" y="-230.5" font-family="Helvetica,sans-Serif" font-size="10.00" fill="#000000">initial_input_file_1</text>
</g>
<!-- initialProcess -->
<g id="node6" class="node">
<title>initialProcess</title>
<polygon fill="#fafad2" stroke="#000000" points="72.5,-170.5 72.5,-189.5 147.5,-189.5 147.5,-170.5 72.5,-170.5"/>
<text text-anchor="middle" x="110" y="-177.5" font-family="Helvetica,sans-Serif" font-size="10.00" fill="#000000">initialProcess</text>
</g>
<!-- initial_input_file_1&#45;&gt;initialProcess -->
<g id="edge3" class="edge">
<title>initial_input_file_1&#45;&gt;initialProcess</title>
<path fill="none" stroke="#000000" d="M70.8039,-223.279C77.9761,-215.3597 88.2241,-204.0442 96.4426,-194.9696"/>
<polygon fill="#000000" stroke="#000000" points="98.3688,-196.4925 101.2519,-189.6594 94.7369,-193.2032 98.3688,-196.4925"/>
<text text-anchor="middle" x="113.5" y="-200.6" font-family="Helvetica,sans-Serif" font-size="8.00" fill="#000000">input_file_1</text>
</g>
<!-- initial_input_file_2 -->
<g id="node2" class="node">
<title>initial_input_file_2</title>
<polygon fill="#94ddf4" stroke="#000000" points="112.5,-223.5 112.5,-242.5 205.5,-242.5 205.5,-223.5 112.5,-223.5"/>
<text text-anchor="middle" x="159" y="-230.5" font-family="Helvetica,sans-Serif" font-size="10.00" fill="#000000">initial_input_file_2</text>
</g>
<!-- initial_input_file_2&#45;&gt;initialProcess -->
<g id="edge4" class="edge">
<title>initial_input_file_2&#45;&gt;initialProcess</title>
<path fill="none" stroke="#000000" d="M153.679,-223.4282C149.2674,-215.9952 142.5185,-205.6931 135,-198 133.7244,-196.6947 132.3446,-195.4176 130.9111,-194.1843"/>
<polygon fill="#000000" stroke="#000000" points="132.2311,-192.1044 125.2228,-189.6781 129.1884,-195.9453 132.2311,-192.1044"/>
<text text-anchor="middle" x="162.5" y="-200.6" font-family="Helvetica,sans-Serif" font-size="8.00" fill="#000000">input_file_2</text>
</g>
<!-- final_output -->
<g id="node3" class="node">
<title>final_output</title>
<polygon fill="#94ddf4" stroke="#000000" points="77,-35.5 77,-54.5 143,-54.5 143,-35.5 77,-35.5"/>
<text text-anchor="middle" x="110" y="-42.5" font-family="Helvetica,sans-Serif" font-size="10.00" fill="#000000">final_output</text>
</g>
<!-- Child2 -->
<g id="node4" class="node">
<title>Child2</title>
<polygon fill="#fafad2" stroke="#000000" points="40,-125.5 40,-144.5 84,-144.5 84,-125.5 40,-125.5"/>
<text text-anchor="middle" x="62" y="-132.5" font-family="Helvetica,sans-Serif" font-size="10.00" fill="#000000">Child2</text>
</g>
<!-- finalProcess -->
<g id="node8" class="node">
<title>finalProcess</title>
<polygon fill="#fafad2" stroke="#000000" points="75,-80.5 75,-99.5 145,-99.5 145,-80.5 75,-80.5"/>
<text text-anchor="middle" x="110" y="-87.5" font-family="Helvetica,sans-Serif" font-size="10.00" fill="#000000">finalProcess</text>
</g>
<!-- Child2&#45;&gt;finalProcess -->
<g id="edge6" class="edge">
<title>Child2&#45;&gt;finalProcess</title>
<path fill="none" stroke="#000000" d="M64.1029,-125.3074C65.7367,-119.6911 68.503,-112.8036 73,-108 74.5622,-106.3313 76.312,-104.7984 78.1781,-103.3937"/>
<polygon fill="#000000" stroke="#000000" points="79.5332,-105.4349 84.0538,-99.5555 76.8535,-101.3326 79.5332,-105.4349"/>
<text text-anchor="middle" x="91" y="-110.6" font-family="Helvetica,sans-Serif" font-size="8.00" fill="#000000">input_files</text>
</g>
<!-- Child1 -->
<g id="node5" class="node">
<title>Child1</title>
<polygon fill="#fafad2" stroke="#000000" points="88,-125.5 88,-144.5 132,-144.5 132,-125.5 88,-125.5"/>
<text text-anchor="middle" x="110" y="-132.5" font-family="Helvetica,sans-Serif" font-size="10.00" fill="#000000">Child1</text>
</g>
<!-- Child1&#45;&gt;finalProcess -->
<g id="edge7" class="edge">
<title>Child1&#45;&gt;finalProcess</title>
<path fill="none" stroke="#000000" d="M110,-125.4567C110,-119.9678 110,-112.9184 110,-106.5532"/>
<polygon fill="#000000" stroke="#000000" points="112.4501,-106.5296 110,-99.5296 107.5501,-106.5296 112.4501,-106.5296"/>
<text text-anchor="middle" x="128" y="-110.6" font-family="Helvetica,sans-Serif" font-size="8.00" fill="#000000">input_files</text>
</g>
<!-- initialProcess&#45;&gt;Child2 -->
<g id="edge1" class="edge">
<title>initialProcess&#45;&gt;Child2</title>
<path fill="none" stroke="#000000" d="M88.1881,-170.3972C84.1794,-168.0215 80.2427,-165.2177 77,-162 73.83,-158.8545 71.135,-154.8981 68.9415,-150.9913"/>
<polygon fill="#000000" stroke="#000000" points="71.0664,-149.7636 65.7281,-144.6152 66.6907,-151.9689 71.0664,-149.7636"/>
<text text-anchor="middle" x="93" y="-155.6" font-family="Helvetica,sans-Serif" font-size="8.00" fill="#000000">input_file</text>
</g>
<!-- initialProcess&#45;&gt;Child1 -->
<g id="edge2" class="edge">
<title>initialProcess&#45;&gt;Child1</title>
<path fill="none" stroke="#000000" d="M110,-170.4567C110,-164.9678 110,-157.9184 110,-151.5532"/>
<polygon fill="#000000" stroke="#000000" points="112.4501,-151.5296 110,-144.5296 107.5501,-151.5296 112.4501,-151.5296"/>
<text text-anchor="middle" x="126" y="-155.6" font-family="Helvetica,sans-Serif" font-size="8.00" fill="#000000">input_file</text>
</g>
<!-- Child3 -->
<g id="node7" class="node">
<title>Child3</title>
<polygon fill="#fafad2" stroke="#000000" points="136,-125.5 136,-144.5 180,-144.5 180,-125.5 136,-125.5"/>
<text text-anchor="middle" x="158" y="-132.5" font-family="Helvetica,sans-Serif" font-size="10.00" fill="#000000">Child3</text>
</g>
<!-- initialProcess&#45;&gt;Child3 -->
<g id="edge5" class="edge">
<title>initialProcess&#45;&gt;Child3</title>
<path fill="none" stroke="#000000" d="M131.8119,-170.3972C135.8206,-168.0215 139.7573,-165.2177 143,-162 146.17,-158.8545 148.865,-154.8981 151.0585,-150.9913"/>
<polygon fill="#000000" stroke="#000000" points="153.3093,-151.9689 154.2719,-144.6152 148.9336,-149.7636 153.3093,-151.9689"/>
<text text-anchor="middle" x="165" y="-155.6" font-family="Helvetica,sans-Serif" font-size="8.00" fill="#000000">input_file</text>
</g>
<!-- Child3&#45;&gt;finalProcess -->
<g id="edge8" class="edge">
<title>Child3&#45;&gt;finalProcess</title>
<path fill="none" stroke="#000000" d="M155.8971,-125.3074C154.2633,-119.6911 151.497,-112.8036 147,-108 145.4378,-106.3313 143.688,-104.7984 141.8219,-103.3937"/>
<polygon fill="#000000" stroke="#000000" points="143.1465,-101.3326 135.9462,-99.5555 140.4668,-105.4349 143.1465,-101.3326"/>
<text text-anchor="middle" x="170" y="-110.6" font-family="Helvetica,sans-Serif" font-size="8.00" fill="#000000">input_files</text>
</g>
<!-- finalProcess&#45;&gt;final_output -->
<g id="edge9" class="edge">
<title>finalProcess&#45;&gt;final_output</title>
<path fill="none" stroke="#000000" d="M110,-80.4567C110,-74.9678 110,-67.9184 110,-61.5532"/>
<polygon fill="#000000" stroke="#000000" points="112.4501,-61.5296 110,-54.5296 107.5501,-61.5296 112.4501,-61.5296"/>
</g>
</g>
</svg>
